:FULLY-SPECIFIED
:FORCE-ALL-JOINTS-BE-3DOF
:DEGREES
510
root 5.89835 16.324 -5.21612 -167.492 77.559 -173.014
lfemur -24.2779 -14.4004 -23.5179
ltibia 52.5093 -0 0
lfoot -26.5805 0.880545 -0.0270573
ltoes 4.35042 -0 0
rfemur -58.0762 5.08785 4.56552
rtibia 57.0316 -0 0
rfoot 12.5421 8.67031 -0.0098956
rtoes -17.9381 0 0
lowerback 8.52215 0.437399 -0.867184
upperback 1.29685 0.697823 3.19942
thorax -3.4903 0.40099 3.72322
lowerneck -8.33818 -12.6501 -4.27627
upperneck 11.7128 -16.8125 2.80779
head 5.55518 -8.19592 0.248595
lclavicle 7.0817e-15 -1.86858e-14 0
lhumerus -46.6539 -34.6676 118.352
lradius 56.9435 -0 0
lwrist 5.98711 0 0
lhand 5.72887 -1.24924 -0.0638121
lfingers 7.12502 -0 0
lthumb 31.076 26.2545 -0.0350511
rclavicle 7.0817e-15 -1.86858e-14 0
rhumerus -11.252 39.8098 -70.4722
rradius 118.835 -0 0
rwrist -26.8772 0 0
rhand 29.9689 -13.9168 -0.225249
rfingers 7.12502 -0 0
rthumb 53.6619 -33.0551 -0.173154
511
root 5.95852 16.2917 -5.15906 -168.068 76.2582 -173.497
lfemur -24.3165 -13.9185 -23.5234
ltibia 53.3529 -0 0
lfoot -26.8262 1.40323 -0.0173996
ltoes 3.29953 -0 0
rfemur -57.7352 4.94658 4.07219
rtibia 55.6965 -0 0
rfoot 12.7424 8.55187 -0.00511174
rtoes -18.5556 0 0
lowerback 8.78184 0.507819 -0.777083
upperback 1.43043 0.818661 3.40066
thorax -3.50518 0.466546 3.8707
lowerneck -8.24149 -12.9044 -4.47514
upperneck 11.9645 -17.1518 2.9199
head 5.63006 -8.35634 0.27724
lclavicle 7.0817e-15 -1.86858e-14 0
lhumerus -46.4464 -34.614 118.383
lradius 57.063 -0 0
lwrist 6.36126 0 0
lhand 5.09587 -1.51051 -0.0475159
lfingers 7.12502 -0 0
lthumb 30.4694 26.0766 -0.0262635
rclavicle 7.0817e-15 -1.86858e-14 0
rhumerus -8.81554 39.0539 -68.7692
rradius 121.055 -0 0
rwrist -30.723 0 0
rhand 30.9935 -13.9205 -0.180926
rfingers 7.12502 -0 0
rthumb 54.6124 -32.6396 -0.198881
512
root 6.01994 16.2547 -5.10232 -168.635 74.9774 -173.969
lfemur -24.3902 -13.4637 -23.5118
ltibia 54.2465 -0 0
lfoot -27.079 1.84398 -0.00806983
ltoes 2.33035 -0 0
rfemur -57.3924 4.79995 3.58124
rtibia 54.5003 -0 0
rfoot 12.8649 8.46553 -0.00159785
rtoes -19.2567 0 0
lowerback 9.03168 0.571597 -0.682326
upperback 1.57428 0.933479 3.59951
thorax -3.50343 0.529718 4.01371
lowerneck -8.13697 -13.1466 -4.6616
upperneck 12.1913 -17.4764 3.03414
head 5.70003 -8.50927 0.307104
lclavicle 7.0817e-15 -1.86858e-14 0
lhumerus -46.2454 -34.5014 118.366
lradius 57.1917 -0 0
lwrist 6.78448 0 0
lhand 4.38253 -1.76999 -0.0263859
lfingers 7.12502 -0 0
lthumb 29.7852 25.9028 -0.0146853
rclavicle 7.0817e-15 -1.86858e-14 0
rhumerus -6.6028 38.1567 -67.4372
rradius 123.065 -0 0
rwrist -34.071 0 0
rhand 31.3912 -13.9885 -0.106293
rfingers 7.12502 -0 0
rthumb 54.9756 -32.4442 -0.145689
513
root 6.08282 16.2127 -5.04592 -169.21 73.7197 -174.442
lfemur -24.4995 -13.0466 -23.4816
ltibia 55.1912 0 0
lfoot -27.3397 2.18714 0
ltoes 1.45971 0 0
rfemur -57.0586 4.64901 3.09577
rtibia 53.4674 0 0
rfoot 12.8942 8.41587 0
rtoes -20.0459 0 0
lowerback 9.26978 0.627455 -0.583619
upperback 1.72902 1.04065 3.79454
thorax -3.48318 0.589689 4.15131
lowerneck -8.02459 -13.3745 -4.83334
upperneck 12.3898 -17.7829 3.15048
head 5.76454 -8.6532 0.338189
lclavicle 1.61016e-14 3.81667e-14 0
lhumerus -46.0534 -34.3236 118.299
lradius 57.3299 0 0
lwrist 7.26034 0 0
lhand 3.58658 -2.02457 0
lfingers 7.12502 0 0
lthumb 29.0209 25.7356 0
rclavicle 1.61016e-14 3.81667e-14 0
rhumerus -4.63515 37.143 -66.5202
rradius 124.832 0 0
rwrist -36.831 0 0
rhand 31.0831 -14.1278 0
rfingers 7.12502 0 0
rthumb 54.678 -752.497 0
514
root 6.14696 16.1647 -4.98955 -169.794 72.4632 -174.921
lfemur -24.6617 -12.6284 -23.4408
ltibia 56.2232 -0 0
lfoot -27.6058 2.47526 0.00392412
ltoes 0.645596 -0 0
rfemur -56.6718 4.49655 2.58449
rtibia 52.5306 -0 0
rfoot 12.8764 8.42186 -0.00306499
rtoes -20.9938 0 0
lowerback 9.50245 0.678137 -0.472083
upperback 1.90025 1.14592 3.9958
thorax -3.44256 0.649446 4.28839
lowerneck -7.90297 -13.5969 -4.99731
upperneck 12.5706 -18.0826 3.27114
head 5.82749 -8.79336 0.370244
lclavicle 1.61016e-14 3.81667e-14 0
lhumerus -45.863 -34.0824 118.182
lradius 57.4953 -0 0
lwrist 7.80208 0 0
lhand 2.64682 -2.3024 0.0347378
lfingers 7.12502 -0 0
lthumb 28.1179 25.5544 0.020359
rclavicle 1.61016e-14 3.81667e-14 0
rhumerus -2.83691 35.9123 -65.9919
rradius 126.395 -0 0
rwrist -39.1111 0 0
rhand 29.9421 -14.3659 0.148774
rfingers 7.12502 -0 0
rthumb 53.5992 -32.8459 0.261156
515
root 6.21196 16.1105 -4.93295 -170.375 71.1879 -175.396
lfemur -24.8886 -12.1683 -23.3984
ltibia 57.3683 -0 0
lfoot -27.8749 2.75766 0.00237767
ltoes -0.162281 0 0
rfemur -56.1735 4.34492 2.02046
rtibia 51.6125 -0 0
rfoot 12.8633 8.49212 -0.0122749
rtoes -22.1472 0 0
lowerback 9.73652 0.727034 -0.340436
upperback 2.09141 1.25523 4.2124
thorax -3.38235 0.712028 4.42963
lowerneck -7.77117 -13.8229 -5.16134
upperneck 12.7453 -18.3874 3.39806
head 5.89237 -8.93532 0.403096
lclavicle 1.61016e-14 3.81667e-14 0
lhumerus -45.6667 -33.7856 118.021
lradius 57.7004 -0 0
lwrist 8.41531 0 0
lhand 1.52087 -2.62812 0.0773473
lfingers 7.12502 -0 0
lthumb 27.0358 25.3413 0.0465001
rclavicle 1.61016e-14 3.81667e-14 0
rhumerus -1.12668 34.3858 -65.7896
rradius 127.821 -0 0
rwrist -41.0953 0 0
rhand 27.9652 -14.7188 0.339876
rfingers 7.12502 -0 0
rthumb 51.7335 -33.4993 0.631647
516
root 6.27774 16.0507 -4.87622 -170.946 69.8999 -175.859
lfemur -25.1721 -11.6737 -23.3538
ltibia 58.6112 -0 0
lfoot -28.1476 3.02885 -0.003392
ltoes -0.959466 0 0
rfemur -55.58 4.19425 1.41349
rtibia 50.7222 -0 0
rfoot 12.8477 8.61571 -0.0262967
rtoes -23.4746 0 0
lowerback 9.97084 0.773871 -0.19179
upperback 2.2998 1.36726 4.44143
thorax -3.30466 0.776698 4.57384
lowerneck -7.62989 -14.0506 -5.3244
upperneck 12.9121 -18.695 3.5308
head 5.958 -9.07808 0.436875
lclavicle 1.61016e-14 3.81667e-14 0
lhumerus -45.4669 -33.4365 117.819
lradius 57.9379 -0 0
lwrist 9.09211 0 0
lhand 0.234723 -2.99331 0.123068
lfingers 7.12502 -0 0
lthumb 25.7996 25.1024 0.075195
rclavicle 1.61016e-14 3.81667e-14 0
rhumerus 0.495683 32.6195 -65.8902
rradius 129.116 -0 0
rwrist -42.8064 0 0
rhand 25.2598 -15.1771 0.553984
rfingers 7.12502 -0 0
rthumb 49.1785 -34.43 1.06944
517
root 6.34423 15.986 -4.81946 -171.501 68.6051 -176.307
lfemur -25.5045 -11.1523 -23.3065
ltibia 59.9368 -0 0
lfoot -28.4244 3.28331 -0.0121866
ltoes -1.7415 0 0
rfemur -54.9079 4.04436 0.773421
rtibia 49.8688 -0 0
rfoot 12.8224 8.78167 -0.0437726
rtoes -24.9447 0 0
lowerback 10.2043 0.818405 -0.0292585
upperback 2.52274 1.48072 4.67999
thorax -3.21163 0.84273 4.71978
lowerneck -7.47985 -14.2782 -5.48543
upperneck 13.069 -19.0032 3.66893
head 6.02321 -9.22065 0.47172
lclavicle 1.61016e-14 3.81667e-14 0
lhumerus -45.2663 -33.0384 117.581
lradius 58.2007 -0 0
lwrist 9.82455 0 0
lhand -1.18559 -3.38942 0.167482
lfingers 7.12502 -0 0
lthumb 24.4343 24.844 0.103457
rclavicle 1.61016e-14 3.81667e-14 0
rhumerus 2.03631 30.6675 -66.2645
rradius 130.289 -0 0
rwrist -44.2676 0 0
rhand 21.9337 -15.7307 0.770331
rfingers 7.12502 -0 0
rthumb 46.0316 -35.6098 1.52786
518
root 6.41134 15.917 -4.76279 -172.038 67.3099 -176.735
lfemur -25.8778 -10.6117 -23.2555
ltibia 61.3297 -0 0
lfoot -28.7058 3.51553 -0.0228598
ltoes -2.50394 0 0
rfemur -54.1736 3.89463 0.110164
rtibia 49.0612 -0 0
rfoot 12.7802 8.97906 -0.0632969
rtoes -26.526 0 0
lowerback 10.4357 0.860425 0.144039
upperback 2.75748 1.59435 4.92515
thorax -3.10537 0.90941 4.86626
lowerneck -7.3218 -14.5039 -5.64336
upperneck 13.2144 -19.3098 3.81207
head 6.08683 -9.36202 0.50778
lclavicle 1.61016e-14 3.81667e-14 0
lhumerus -45.0673 -32.5948 117.308
lradius 58.4813 -0 0
lwrist 10.6047 0 0
lhand -2.71397 -3.80767 0.206711
lfingers 7.12502 -0 0
lthumb 22.9652 24.5724 0.128671
rclavicle 1.61016e-14 3.81667e-14 0
rhumerus 3.50389 28.5819 -66.8798
rradius 131.348 -0 0
rwrist -45.5017 0 0
rhand 18.0946 -16.3671 0.968394
rfingers 7.12502 -0 0
rthumb 42.3917 -37.0063 1.95969
519
root 6.479 15.8443 -4.70629 -172.555 66.0204 -177.142
lfemur -26.2843 -10.0593 -23.1999
ltibia 62.7748 -0 0
lfoot -28.9924 3.71998 -0.03432
ltoes -3.24231 0 0
rfemur -53.3936 3.74389 -0.566326
rtibia 48.3085 -0 0
rfoot 12.7141 9.19694 -0.0834045
rtoes -28.187 0 0
lowerback 10.6639 0.899751 0.324981
upperback 3.0013 1.70695 5.17394
thorax -2.98803 0.976041 5.01205
lowerneck -7.1565 -14.7259 -5.79709
upperneck 13.3462 -19.6124 3.95987
head 6.14768 -9.50122 0.545207
lclavicle 1.61016e-14 3.81667e-14 0
lhumerus -44.8724 -32.109 117.006
lradius 58.7725 -0 0
lwrist 11.4247 0 0
lhand -4.32427 -4.23914 0.237576
lfingers 7.12502 -0 0
lthumb 21.4173 24.2941 0.148698
rclavicle 1.61016e-14 3.81667e-14 0
rhumerus 4.90705 26.4132 -67.7018
rradius 132.301 -0 0
rwrist -46.5319 0 0
rhand 13.8511 -17.0715 1.12953
rfingers 7.12502 -0 0
rthumb 38.3599 -38.5816 2.32118
520
root 6.54713 15.7687 -4.65007 -173.049 64.7428 -177.527
lfemur -26.7161 -9.50259 -23.1384
ltibia 64.2569 -0 0
lfoot -29.2846 3.89112 -0.0455343
ltoes -3.95218 0 0
rfemur -52.5846 3.59035 -1.24607
rtibia 47.6198 -0 0
rfoot 12.6168 9.42437 -0.102575
rtoes -29.8963 0 0
lowerback 10.8877 0.93624 0.510445
upperback 3.25143 1.81734 5.4234
thorax -2.86176 1.04194 5.15591
lowerneck -6.98475 -14.9422 -5.9455
upperneck 13.4626 -19.9088 4.11199
head 6.2046 -9.63723 0.584166
lclavicle 1.61016e-14 3.81667e-14 0
lhumerus -44.6839 -31.5844 116.676
lradius 59.0671 -0 0
lwrist 12.2766 0 0
lhand -5.9903 -4.6747 0.257714
lfingers 7.12502 -0 0
lthumb 19.8158 24.0156 0.161953
rclavicle 1.61016e-14 3.81667e-14 0
rhumerus 6.25245 24.2098 -68.6957
rradius 133.155 -0 0
rwrist -47.381 0 0
rhand 9.31187 -17.8258 1.2385
rfingers 7.12502 -0 0
rthumb 34.0399 -40.292 2.57572
